<svg xmlns="http://www.w3.org/2000/svg" viewBox="0 0 64 64" role="img" aria-labelledby="title desc">
  <title id="title">Feuille de marque Tarot</title>
  <desc id="desc">Icône de feuille de marque en style carte premium.</desc>
  <defs>
    <linearGradient id="bg" x1="10" y1="8" x2="56" y2="58" gradientUnits="userSpaceOnUse">
      <stop offset="0" stop-color="#0f172a" />
      <stop offset="1" stop-color="#111827" />
    </linearGradient>
    <linearGradient id="sheet" x1="18" y1="14" x2="46" y2="50" gradientUnits="userSpaceOnUse">
      <stop offset="0" stop-color="#fffdf5" />
      <stop offset="1" stop-color="#e2e8f0" />
    </linearGradient>
    <linearGradient id="accent" x1="22" y1="18" x2="48" y2="48" gradientUnits="userSpaceOnUse">
      <stop offset="0" stop-color="#facc15" />
      <stop offset="1" stop-color="#f59e0b" />
    </linearGradient>
  </defs>
  <rect width="64" height="64" rx="16" fill="url(#bg)" />
  <circle cx="40" cy="23" r="14" fill="#facc15" opacity="0.16" />
  <circle cx="22" cy="46" r="10" fill="#38bdf8" opacity="0.1" />
  <rect x="16" y="12" width="32" height="40" rx="9" fill="url(#sheet)" />
  <rect x="19" y="16" width="18" height="3.8" rx="1.9" fill="#0f172a" opacity="0.88" />
  <rect x="19" y="24" width="24" height="3.8" rx="1.9" fill="#0f172a" opacity="0.82" />
  <rect x="19" y="32" width="20" height="3.8" rx="1.9" fill="#0f172a" opacity="0.76" />
  <rect x="19" y="40" width="14" height="3.8" rx="1.9" fill="#0f172a" opacity="0.68" />
  <path d="M40 16l6 6-6 6" fill="none" stroke="url(#accent)" stroke-width="3.2" stroke-linecap="round" stroke-linejoin="round" />
  <path d="M32 41l2.3 4.7 5.2.8-3.8 3.6.9 5.2-4.6-2.4-4.6 2.4.9-5.2-3.8-3.6 5.2-.8L32 41Z" fill="url(#accent)" />
</svg>